<svg xmlns="http://www.w3.org/2000/svg" version="1.1" xmlns:xlink="http://www.w3.org/1999/xlink" xmlns:svgjs="http://svgjs.dev/svgjs" viewBox="0 0 1422 800"><g stroke-width="1.5" stroke="hsl(32, 20%, 65%)" fill="none" stroke-linecap="round"><path d="M 0 560 Q 355.5 120 711 400 Q 1066.5 680 1422 560" opacity="1.00"></path><path d="M 0 546 Q 355.5 120 711 400 Q 1066.5 680 1422 546" opacity="0.98"></path><path d="M 0 532 Q 355.5 120 711 400 Q 1066.5 680 1422 532" opacity="0.95"></path><path d="M 0 518 Q 355.5 120 711 400 Q 1066.5 680 1422 518" opacity="0.93"></path><path d="M 0 504 Q 355.5 120 711 400 Q 1066.5 680 1422 504" opacity="0.90"></path><path d="M 0 490 Q 355.5 120 711 400 Q 1066.5 680 1422 490" opacity="0.88"></path><path d="M 0 476 Q 355.5 120 711 400 Q 1066.5 680 1422 476" opacity="0.85"></path><path d="M 0 462 Q 355.5 120 711 400 Q 1066.5 680 1422 462" opacity="0.83"></path><path d="M 0 448 Q 355.5 120 711 400 Q 1066.5 680 1422 448" opacity="0.81"></path><path d="M 0 434 Q 355.5 120 711 400 Q 1066.5 680 1422 434" opacity="0.78"></path><path d="M 0 420 Q 355.5 120 711 400 Q 1066.5 680 1422 420" opacity="0.76"></path><path d="M 0 406 Q 355.5 120 711 400 Q 1066.5 680 1422 406" opacity="0.73"></path><path d="M 0 392 Q 355.5 120 711 400 Q 1066.5 680 1422 392" opacity="0.71"></path><path d="M 0 378 Q 355.5 120 711 400 Q 1066.5 680 1422 378" opacity="0.68"></path><path d="M 0 364 Q 355.5 120 711 400 Q 1066.5 680 1422 364" opacity="0.66"></path><path d="M 0 350 Q 355.5 120 711 400 Q 1066.5 680 1422 350" opacity="0.63"></path><path d="M 0 336 Q 355.5 120 711 400 Q 1066.5 680 1422 336" opacity="0.61"></path><path d="M 0 322 Q 355.5 120 711 400 Q 1066.5 680 1422 322" opacity="0.59"></path><path d="M 0 308 Q 355.5 120 711 400 Q 1066.5 680 1422 308" opacity="0.56"></path><path d="M 0 294 Q 355.5 120 711 400 Q 1066.5 680 1422 294" opacity="0.54"></path><path d="M 0 280 Q 355.5 120 711 400 Q 1066.5 680 1422 280" opacity="0.51"></path><path d="M 0 266 Q 355.5 120 711 400 Q 1066.5 680 1422 266" opacity="0.49"></path><path d="M 0 252 Q 355.5 120 711 400 Q 1066.5 680 1422 252" opacity="0.46"></path><path d="M 0 238 Q 355.5 120 711 400 Q 1066.5 680 1422 238" opacity="0.44"></path><path d="M 0 224 Q 355.5 120 711 400 Q 1066.5 680 1422 224" opacity="0.42"></path><path d="M 0 210 Q 355.5 120 711 400 Q 1066.5 680 1422 210" opacity="0.39"></path><path d="M 0 196 Q 355.5 120 711 400 Q 1066.5 680 1422 196" opacity="0.37"></path><path d="M 0 182 Q 355.5 120 711 400 Q 1066.5 680 1422 182" opacity="0.34"></path><path d="M 0 168 Q 355.5 120 711 400 Q 1066.5 680 1422 168" opacity="0.32"></path><path d="M 0 154 Q 355.5 120 711 400 Q 1066.5 680 1422 154" opacity="0.29"></path><path d="M 0 140 Q 355.5 120 711 400 Q 1066.5 680 1422 140" opacity="0.27"></path><path d="M 0 126 Q 355.5 120 711 400 Q 1066.5 680 1422 126" opacity="0.24"></path><path d="M 0 112 Q 355.5 120 711 400 Q 1066.5 680 1422 112" opacity="0.22"></path><path d="M 0 98 Q 355.5 120 711 400 Q 1066.5 680 1422 98" opacity="0.20"></path><path d="M 0 84 Q 355.5 120 711 400 Q 1066.5 680 1422 84" opacity="0.17"></path><path d="M 0 70 Q 355.5 120 711 400 Q 1066.5 680 1422 70" opacity="0.15"></path><path d="M 0 56 Q 355.5 120 711 400 Q 1066.5 680 1422 56" opacity="0.12"></path><path d="M 0 42 Q 355.5 120 711 400 Q 1066.5 680 1422 42" opacity="0.10"></path><path d="M 0 28 Q 355.5 120 711 400 Q 1066.5 680 1422 28" opacity="0.07"></path></g></svg>